<?xml version="1.0" encoding="UTF-8"?>
<svg width="98px" height="23px" viewBox="0 0 98 23" version="1.1" xmlns="http://www.w3.org/2000/svg" xmlns:xlink="http://www.w3.org/1999/xlink">
    <!-- Generator: Sketch 62 (91390) - https://sketch.com -->
    <title>logo</title>
    <desc>Created with Sketch.</desc>
    <g id="logo" stroke="none" stroke-width="1" fill="none" fill-rule="evenodd">
        <path d="M7.84,23 C8.29,23 8.74,22.97 9.19,22.88 C11.62,22.4 13.57,20.69 14.2,18.53 C14.5,17.51 14.47,16.43 14.14,15.41 C13.81,14.36 13.15,13.37 12.19,12.5 C11.71,12.05 11.05,11.42 10.51,10.88 L6.79,7.31 C5.86,6.41 5.83,5.72 5.95,5.3 C6.13,4.67 6.79,4.16 7.57,4.01 C8.2,3.89 9.37,3.89 10.51,5.27 L13.24,3.08 C12.37,2.03 11.35,1.28 10.21,0.83 C9.13,0.44 7.99,0.35 6.91,0.59 C5.92,0.77 4.99,1.22 4.24,1.85 C3.43,2.54 2.86,3.38 2.59,4.34 C2.32,5.24 2.35,6.23 2.65,7.16 C2.95,8.12 3.52,9.02 4.36,9.83 L7.09,12.41 C7.21,12.53 8.83,14.12 9.82,15.05 C10.45,15.65 11.14,16.55 10.84,17.57 C10.57,18.47 9.64,19.22 8.5,19.43 C7.84,19.58 7.12,19.52 6.46,19.25 C5.65,18.95 4.9,18.35 4.27,17.51 L1.51,19.67 C2.56,21.02 3.79,21.95 5.2,22.52 C6.04,22.85 6.94,23 7.84,23 Z M21.28,23 L21.28,13.4 L30.16,13.4 L30.16,23 L33.64,23 L33.64,0.74 L30.16,0.74 L30.16,10.25 L21.28,10.25 L21.28,0.74 L17.8,0.74 L17.8,23 L21.28,23 Z M48.7,23 C50.2,23 51.67,22.7 53.05,22.13 C54.37,21.56 55.54,20.75 56.59,19.73 C57.61,18.71 58.39,17.54 58.96,16.19 C59.53,14.84 59.83,13.37 59.83,11.87 C59.83,10.37 59.53,8.9 58.96,7.52 C58.39,6.2 57.61,5.03 56.59,3.98 C55.54,2.96 54.37,2.18 53.05,1.61 C51.67,1.04 50.2,0.74 48.7,0.74 C47.2,0.74 45.73,1.04 44.38,1.61 C43.03,2.18 41.86,2.96 40.84,3.98 C39.82,5.03 39.01,6.2 38.44,7.52 C37.87,8.9 37.57,10.37 37.57,11.87 C37.57,13.37 37.87,14.84 38.44,16.19 C39.01,17.54 39.82,18.71 40.84,19.73 C41.86,20.75 43.03,21.56 44.38,22.13 C45.73,22.7 47.2,23 48.7,23 Z M48.7,19.52 C46.66,19.52 44.74,18.71 43.3,17.27 C41.86,15.83 41.05,13.91 41.05,11.87 C41.05,9.83 41.86,7.91 43.3,6.47 C44.74,5.03 46.66,4.22 48.7,4.22 C50.74,4.22 52.66,5.03 54.1,6.47 C55.54,7.91 56.35,9.83 56.35,11.87 C56.35,13.91 55.54,15.83 54.1,17.27 C52.66,18.71 50.74,19.52 48.7,19.52 Z M67.24,23 L67.24,15.47 L70.36,15.47 C73.3,15.47 75.01,14.27 75.91,13.25 C77.11,11.96 77.71,10.16 77.71,8.09 C77.71,6.02 77.11,4.25 75.91,2.93 C75.01,1.94 73.3,0.74 70.36,0.74 L63.76,0.74 L63.76,23 L67.24,23 Z M70.36,12.32 L67.24,12.32 L67.24,3.86 L70.36,3.86 C71.8,3.86 72.88,4.28 73.6,5.06 C74.41,5.96 74.59,7.22 74.59,8.09 C74.59,8.99 74.41,10.25 73.6,11.15 C72.88,11.93 71.8,12.32 70.36,12.32 Z M89.38,23 L89.38,11.36 L97.18,0.74 L93.16,0.74 L87.64,8.36 L82.12,0.74 L78.07,0.74 L85.9,11.36 L85.9,23 L89.38,23 Z" id="SHOPY" fill="#000000" fill-rule="nonzero"></path>
    </g>
</svg>